<?xml version="1.0" ?><svg viewBox="0 0 200 200" fill="#fff" xmlns="http://www.w3.org/2000/svg"><path d="M49.453,32.629c4.031-5.74,4.755-13.531.823-19.506A18,18,0,0,0,32.868,5.215,17.814,17.814,0,0,0,18.3,19.6a17.1,17.1,0,0,0,9.072,18.254C34.548,41.6,44.707,39.387,49.453,32.629Zm-20.44,5.393A16.626,16.626,0,0,1,18.567,21.734,17,17,0,0,1,36.459,5.671c13.4.722,20.642,15.917,12.653,26.563A17.439,17.439,0,0,1,29.013,38.022Z"/><path d="M117.076,39.011a17.825,17.825,0,0,0,19.9-7.293c3.635-5.843,3.932-13.4-.122-19.111a17.462,17.462,0,0,0-24.272-4.556C100.568,16.271,103.358,34.891,117.076,39.011ZM106.665,28.73a16.958,16.958,0,1,1,31.552-12.442A16.3,16.3,0,0,1,131.378,36.4a16.918,16.918,0,0,1-24.669-7.689Z"/><path d="M181.824,19.7C181.009,13.351,176.091,8.049,170.138,6A17.372,17.372,0,0,0,150.566,12.1c-4.329,5.952-4.8,14.7-.22,20.67A17.668,17.668,0,0,0,181.824,19.7Zm-.472,5.25a17.289,17.289,0,0,1-10.983,13.1,17.069,17.069,0,0,1-19.111-5.085,16.954,16.954,0,1,1,30.094-8.018Z"/><path d="M38.128,14.628c-6.172-5.331-9.72,10.115-9.885,13.729l.229.013c.2-.834,1.239-5.474,1.65-6.285.092-.1,10.464-.012,10.564-.01.2.835,1.1,6.062,1.495,6.018.369-.04-.654-5.314-1.318-7.908C40.325,18.23,39.749,16.027,38.128,14.628Zm-7.787,6.557c.648-2.329,2.417-7.37,5.547-7.019,3.361.374,4.042,4.8,4.69,7.392C40.509,21.284,32.755,21.562,30.341,21.185Z"/><path d="M127.73,28.6a5.194,5.194,0,0,1-3.789.923c-3.847-.251-6.446-3.888-6.227-7.589.385-4.048,3.63-7.071,6.644-7.425,2.07-.178,2.094.889,2.889.889-1.1-1.724-3.788-1.724-5.492-.922a9.883,9.883,0,0,0-4.206,4.789,7.686,7.686,0,0,0,3.818,10.18C124.323,30.8,127.73,29.219,127.73,28.6Z"/><path d="M163.448,13.65c-.417,0-1.329,0-1.493.363s.066.955.076,1.241c.224,4.868-.443,11.86-.065,15.838A11.72,11.72,0,0,0,165,30.873a10.325,10.325,0,0,0,7.364-6.6C174.152,19.316,169.791,13.337,163.448,13.65Zm7.25,12.29c-2.274,3.342-7.809,5.847-8.238,4.262-.053-.441.071-12.6.1-13.674,0-.462-.219-1.856.077-2.2s1.954-.242,2.5-.121C171.747,15.747,173.538,21.766,170.7,25.94Z"/><path d="M154,64.492c.132-.659-1.021-1.252-1.538-.988C152.751,63.6,153.915,64.105,154,64.492Z"/><path d="M148.951,68.006h.659c-.791-.395-1.1-.538-.627-1.438s1.625-2.04,1.4-2.2S147.084,67.38,148.951,68.006Z"/><path d="M152.575,66.249c.191-.268.615-1.263-.111-.879C152.081,65.568,152.153,66.844,152.575,66.249Z"/><path d="M148.621,64.711c.164-.329.561-1.35-.088-.713C148.324,64.206,148.139,65.195,148.621,64.711Z"/><path d="M148.511,69.215a1.32,1.32,0,0,0,2.307.219C150.076,69.434,149.548,69.781,148.511,69.215Z"/><path d="M149.28,62.405l-.263.088c.164,0,1.217.139,1.362.351C150.258,62.383,149.665,62.306,149.28,62.405Z"/><path d="M146.424,143.573c-3.156-1.02-5.073,2.536-5.667,5a26.2,26.2,0,0,0-.561,4.9c0,.527-.207.888.407.877a7.519,7.519,0,0,0,2.2-.888c1.238-.49,5.906-1.98,6.855-2.373.769-.318,1.032-.5.9-1.34C150.159,147.306,149.041,144.418,146.424,143.573Zm3.625,6.809c0,.523-7.358,2.417-9.226,3.184.241-2.942,0-8.644,3.735-9.675C148.039,142.925,150.049,147.647,150.049,150.382Z"/><path d="M169.852,124.472c-.819-.325-6.916-1.606-6.936-1.635-.162-1.159-.087-1.649-.247-2.384a1.241,1.241,0,0,1,.278-1.116,27.117,27.117,0,0,0,6.872-7.749c4.37-8.057,3.575-19.445-2.845-26.5-.681-.759-1.515-1.329-2.2-2.032a1.452,1.452,0,0,0,.439-2.417,2.4,2.4,0,0,0,1.538-4.063c1.647,0,3.3-2.351,1.427-3.406,2.2-.219,2.922-3.536.769-4.393a1.845,1.845,0,0,0-.109-3.624,3.163,3.163,0,0,0,.593-2.988,1.9,1.9,0,0,0-2.351-1.1,2.538,2.538,0,0,0-.67-2.9,4.685,4.685,0,0,0-3.613-.725,2.2,2.2,0,0,0-1.659-2.109,3.962,3.962,0,0,0-2.262.2c-.5.154-.3.177-.627-.1-.68-.572-1.02-1.269-2.075-1.242-.637.017-1.659.472-1.769,1.2a3.673,3.673,0,0,0-2.724-1.1c-.735,0-1.746.275-1.559,1.23a2.023,2.023,0,0,0-3.075,2.2c-1.9-.78-6.085,2.493-3.954,4.283-2.2-.207-4.548,3.713-2.087,4.943a2.363,2.363,0,0,0-.549,4.393c-1.637.659,0,2.395.878,2.746a.309.309,0,0,0-.22.329c-9.406-2.821-11.325-1.59-13.179-3.316-1.11-1.033-2.032-2.131-3.076-3.175a66.825,66.825,0,0,0-10.17-8.346c-.649-.473-2.823-2.417-3.625-1.835-.176-.253-.11-.824-.187-1.1-.3-1.535-1.972-2.275-2-.373a14.15,14.15,0,0,1-2.449-3.3C95.1,34.071,95.764,34.548,94.561,32.585a4.945,4.945,0,0,1-.637-.988c-.1-.4.242-.8.439-1.22C98.6,21.716,95.6,12.429,88,7.938,76.577.847,61.964,8.891,61.413,22.272A17.265,17.265,0,0,0,79.92,40.021a15.242,15.242,0,0,0,6.1-1.444c1.179,1.152,7.543,11.83,25.4,39.205,2.268,3.478,4.967,8.109,8.172,11.675,1.153,1.1,2.669.494,3.877-.286A3.292,3.292,0,0,0,124.9,85.69a19.067,19.067,0,0,0,9.962,3.569,31.888,31.888,0,0,0-1.274,8.787,29.988,29.988,0,0,1-.833,4.614,6.847,6.847,0,0,0-.024,4.163,38.975,38.975,0,0,0-8.369,3.613c-5.791,3.268-6.389,5.047-7.073,5.249-.081,0-12.176-1.964-12.176-1.964-.527-1.957-3.963-14.476-4-14.621-.274-.988,0-1.1-.944-1.23L69.695,94.608c-.538-.055-.912-.186-1.285.2-.659.671-.319,1.275-.1,2.054L72.2,110.842c-4,.5-28.613,2.931-31.557,3.249a8.575,8.575,0,0,0-1.942.342c-.582.33-.46.876-.438,1.448.014.252.028,47.13.028,47.465a6.74,6.74,0,0,0,.19,2.544,3.857,3.857,0,0,0,1.422.92,18.794,18.794,0,0,0,2.29.98c.763.108.938-.144,4.832-1.3.324-.1.329,0,.351-.756.677-18.5.215-16.062.232-43.58,6.777,1.482,54.183,11.8,56.378,12.147a48.484,48.484,0,0,0-4.394,14.564c-1.3,8.857,1.163,13.743,1.988,18.968a1.591,1.591,0,0,1-.944,1.8c-.791.474-5.052,2.428-3.57,3.45,2.01,1.383,5.151.275,7.26-.187a6,6,0,0,0,2.658-.89,3.992,3.992,0,0,0,.956-3.1,31.54,31.54,0,0,1,.582-7.688,29.1,29.1,0,0,1,3.229-7.4c-1.088,5.573-.906,11.537,1.582,19.5a2.468,2.468,0,0,1,0,2.085c-.4.617-1.231.857-1.824,1.22-.856.539-4.393,1.966-2.251,3.064,1.483.77,3.624.5,5.173.166s3.844-.681,4.942-1.966.627-4.208.725-5.942a22.788,22.788,0,0,1,4.816-12.478c0,3.021.145,32.6.16,32.7.141.4,3.964,2.406,4.064,2.459.5.268.7.506,1.2.3a17.635,17.635,0,0,0,2.559-1.715c.868-.58,1.307-.624,1.3-1.723-.118-11.767-.5-17.549-.461-17.8,1.023-.37,3.095-1.113,4.678-1.713,1.306-.5,2.183-1.148,2.1-2.548,0-.113.084-8.509.143-8.963.176-.78.791-.9,1.494-1.1,3.746-1,5.19-1.7,8.336-2.363.308.286.253,2.483.275,3.021,0,.1.292,7.961.461,8.1.528.451,2.307-.79,2.779-1.031,1.1-.539,2.285-.924,3.3-1.515,1.549-.9,1.1-3.231,1.186-4.79.11-2.339.11-4.69.165-7.03.11-4.591.582-9.127,0-13.706a20.556,20.556,0,0,0-1.461-4.723s2.22-.6,4.491-5.305a3.777,3.777,0,0,1,1-.154c.372,4.406.169,38.256.2,38.441.164.386,1.1.813,1.405,1.1.1.081,2.241,1.69,2.383,1.7.616,0,1.878-1.263,2.34-1.615.89-.691.983-.691.994-1.712V126.031C169.989,125.614,170.258,124.779,169.852,124.472ZM93.346,14.578c2.745,5.01,3.079,11.3-.4,16.2a3.108,3.108,0,0,1-.736-.725c-.231-.472-.055-.44.351-.835.542-.471,1.559-1.484,1.439-1.593s-1.209.83-1.736,1.34c-.658.506-.45.528-.944.176a19.965,19.965,0,0,0-1.45-1.45c.67-.67,1.6-1.1,2.021-1.988.516-1.1-.758-1.493-1.647-1.329-1.682.428-2.038,1.026-2.351.978a10.384,10.384,0,0,1-1.1-1.021,20.832,20.832,0,0,0,1.966-1.472c.965-.806,3.427-2.483,3.3-3.91-.2-2.492-6.4,1.48-8.571,2.43a2.812,2.812,0,0,1-.479-.387,3.734,3.734,0,0,0,1.361-3.559c.305-.507,6.148-3.486,5.2-5.162-1.211-2.1-5.966,1.351-7.938,2.437a19.536,19.536,0,0,0-4.177-.4c1.6-1.151,5.893-4.554,6.777-5.293.5-.419,1.3-1.1,1.1-1.814A16.025,16.025,0,0,1,93.346,14.578Zm-3.6,12.79c-.571-.571-1.1-1.186-1.647-1.758.538-.318,3.449-1.724,3.646-.472C91.87,25.929,90.278,27.016,89.75,27.368Zm-3.514-3.4a29.175,29.175,0,0,0-2.254-2.117,41.191,41.191,0,0,1,3.759-2.111c.7-.352,2.581-1.516,3.558-1.1,1.164.493-.945,2.02-1.373,2.393C88.751,22.052,87.488,23.031,86.236,23.963Zm-5.261-8.15c.824-.392,1.947.4,2.361,1.187a2.781,2.781,0,0,1,.193.625c-.444.357-4.675,2.982-5.283,3.471l-2.983.242a11.713,11.713,0,0,1-.071-2.055C75.293,19.221,79.551,16.435,80.975,15.813Zm-5.723,1c.157-1.613,2.1-1.551,3.438-1.538a10.816,10.816,0,0,1,1.888.193,53.633,53.633,0,0,0-5.337,3.241A18.167,18.167,0,0,1,75.252,16.813Zm7.067-1.958a26.554,26.554,0,0,1,3.3-1.919c.812-.4,2.405-1.23,3.3-.824,1.241.538-.571,1.933-1.1,2.35a34.468,34.468,0,0,1-3.525,2.566A3.249,3.249,0,0,0,82.319,14.855Zm-1.685,6.033A4.144,4.144,0,0,1,79.316,21c.461-.351.967-.637,1.428-.987A.868.868,0,0,0,80.634,20.888Zm-3.515,1.427c-.7.506-1.427.99-2.086,1.539l.018-1.4A18,18,0,0,1,77.119,22.315Zm.872-.138c1.058-.147,1.664-.232,2.753-.29a5.948,5.948,0,0,1,.22.879c-.085.244-1.671.89-6.195,4.217,0-.282.125-1.93.176-2.207C75.715,23.967,77.991,22.177,77.991,22.177Zm2.916,1.133c.029.1.737,2.927.961,3.953-.185.3-4.087.774-7.165.436C74.864,27.159,79.346,24.481,80.907,23.31Zm.167-3.521,2.416-1.757a2.329,2.329,0,0,1-.648,1.845c-.177.177-.408.384-.408.384C82.162,20.059,81.507,19.567,81.074,19.789Zm2.537-13.18c-2.867.637-5.492,2.812-7.864,4.394a59.461,59.461,0,0,0-7.59,5.887c-.966.856-2.2,2.35-3.482,2.691-1.482.384-1.218-1.438-.79-2.492a17.011,17.011,0,0,1,3.392-3.951c.435-.456,5.189-5.128,6.293-6.317A17,17,0,0,1,83.611,6.609ZM62.4,26.808A17.221,17.221,0,0,1,72.636,7.162c-.676.592-2.312,2.223-3.106,3.017-.945.944-9.709,8.711-5.689,9.786,1.669.45,3.6-2.076,4.7-2.975A64.259,64.259,0,0,1,81.107,8.279a8.587,8.587,0,0,1,2.921-1.34c.944-.109,1.1.45.527,1.1-1.148,1.144-7.433,5.857-7.534,5.92a3.171,3.171,0,0,1-1.659.341c-1.727.137-1.522.382-1.561,2.227a112.078,112.078,0,0,0-8.961,7.866c-.791.824-2.076,1.826-2.274,3A4.866,4.866,0,0,1,62.4,26.808Zm.53,1.162c-.372-1.141,1.823-2.922,4.709-5.467,2.1-1.846,4.316-3.526,6.513-5.239.013.754.013,1.819.013,1.819s-.937.952-5.2,5.034C68.6,24.472,63.337,29.212,62.932,27.97Zm.019.694c2.262-.176,4.495-2.087,5.989-3.593,1.715-1.729,3.376-3.265,5.2-4.974,0,.113.034,3.771-.009,4.161-.752.964-4.47,4.263-6.274,6.519-.889.979-1.148,2.621.216,2.621.956,0,1.7-.923,2.351-1.494,1.323-1.151,3.76-3.324,3.773-3.337,1.4.647,5.167.27,6.771-.079-4.508,3.574-6.546,4.933-10.325,8.875A15.943,15.943,0,0,1,62.951,28.664Zm5.273,2.408a66.261,66.261,0,0,1,5.9-6.055c-.058,1.1-.179,2.2-.29,2.906-.338.382-4.438,4.052-4.539,4.134C67.34,33.656,66.668,32.865,68.224,31.072ZM71.1,37.583a106.354,106.354,0,0,1,10.566-9.106c.395-.132,1,0,.867.56-.077.341-1.373,1.1-1.647,1.318-2.641,2.033-8.765,7.479-8.864,7.58C71.923,37.9,71.2,37.643,71.1,37.583Zm1.471.537c1.942-2.15,9.882-8.483,9.984-8.566.187.922.483,1.812.714,2.723a20.955,20.955,0,0,0-2.427,1.715c-.483.526-1.208,1.481-.4,2.031s2.877-.176,3.723-.6a6.782,6.782,0,0,0,1.1,2.284C82.319,39.322,75.207,39.777,72.572,38.12Zm10.791-5.351a23.679,23.679,0,0,0,.654,2.287c-.129.519-3.893,1.724-3.471,0C80.8,34.008,82.465,33.148,83.363,32.769Zm10.561.64h-.077c-.154.889-1.34.428-1.856.933s-.46,1.594-1.1,2.2c-.881.832-1.516.055-2.439-.132-1.1-.23-1.592,1.176-2.581,1.033S84.758,35.677,84.533,35c-.943-2.833-2.543-8.76-3.13-11.082.923.374,2.856-.2,2.856-1.428,5.227,5.55,2.231,2.418,8.16,8.348C93.166,31.553,94.144,32.321,93.924,33.409ZM109.509,58.67a5.056,5.056,0,0,0-.746-1.351c-.143-.218-.385-.889-.637-1.01.329.165.615.593.966.286s0-1.324.725-1.1c.5.155.648,1.406.626,1.779a1.483,1.483,0,0,1-.857,1.341Zm7.37,26.58c-.349-.463-.637-.965-.988-1.428,2.262.231,5.261-1.362,5.711-3.734.3.593,1.1,1.745.935,2.4a3.641,3.641,0,0,1-1.572,2.1C120.02,85.338,117.84,86.521,116.879,85.25Zm7.469,1.759a3.735,3.735,0,0,1-3.625,2.634c-1.011-.01-2.5-2.436-3.335-3.6,2.2,1,5.051-.97,5.5-3.211C123.68,83.93,124.578,85.6,124.348,87.009Zm9.8,10.575a40.609,40.609,0,0,1,.989-7.786c.8-2.5,3.714-6.846,3.3-7.118-.575-.373-3.335,6.012-3.392,6.112a12.923,12.923,0,0,1-3.473-.6,35.577,35.577,0,0,1-6.415-2.845c-.821-.747-3.137-5.552-12.377-21.593-.308-.516-2.592-4.833-2.79-4.733.8-.407.966-1.341,1.867-.824a75.258,75.258,0,0,1,8.94,6.468,74,74,0,0,1,5.492,5.339,7.39,7.39,0,0,0,2.625,2.2c3.588.912,2.554-.149,11.214,2.21,2.46.659,4.755,1.578,7.183,2.347a2.819,2.819,0,0,0,2.537,0,2.679,2.679,0,0,0,.78-.934c.121-.208.934-1.79.78-2.031s-.648-.121-.978-.209a4.644,4.644,0,0,1-1.438-.769c-3.146-2.4-2.416-7.019-.231-10.357a4.7,4.7,0,0,1,2.636-2.032,14.874,14.874,0,0,1,3.932,0c0,4.22,2.862,6.072,3.46,7.578a4.275,4.275,0,0,0,.1.758c.208.253,0,.166.3.122s.538-.352.78-.418c.658-.165,1.274.153,1.219.878-.1,1.231-1.823,2.308-2.889,1.506-.944,2.371-1.911,5.776-.648,8.194a3.888,3.888,0,0,0,2.406,1.635,16.493,16.493,0,0,1,3.525,1.9c-4.851-.279-9.328,5.45-15.508,4.514a7.114,7.114,0,0,1-5.349-3.822c-1.57-3.286.672-7.534.335-7.658-.1-.037-.177.334-.244.519-1.141,3.168-1.669,6.765,1.018,9.391,2.845,2.779,6.8,2.636,10.094,1.219,3.152-1.354,7.857-4.907,10.155-3.591a17.339,17.339,0,0,1,6.529,8.753c4.75,13.554-2.216,27.141-14.784,30.094a7.688,7.688,0,0,1-2.976.319,4.392,4.392,0,0,1-2.5-1.516,3.633,3.633,0,0,1-1.329-2.065c.285-3.252,4.14-9.433,7.183-12.739.358-.4.922-.844,1.3-1.225.516-.526.736-.681.582-1.428a33.908,33.908,0,0,1-.721-3.605c-.231-2.621.259-7.8-.124-7.89s-.551,4.676-.384,7.018c.258,3.629,1.385,4.73.472,5.58a26.554,26.554,0,0,0-5.8,7.106c-.874.54-8.758-.463-15.475-3.383C131.142,106.236,133.9,103.382,134.145,97.584Zm28.178,25.161c-.653-.175-4.366-.745-4.871-.732,1.494-.452,2.833-1.276,4.305-1.759.549-.176.527-.164.593.342A18.846,18.846,0,0,1,162.323,122.745Zm-35.932-12.671a59.021,59.021,0,0,1,6.721-2.717,16.8,16.8,0,0,0,5.042,2.387,39.723,39.723,0,0,0,4.251,1.306,48.955,48.955,0,0,0,8.8,1.142,8.754,8.754,0,0,0-.855,1.289,31.732,31.732,0,0,0-1.745,4.165,2.02,2.02,0,0,0,.206,1.883,2.724,2.724,0,0,0-1.516-.1c-.351.1-.731.465-.994.554-.723-.149-27.422-4.347-27.523-4.364A34.652,34.652,0,0,1,126.391,110.074ZM68.813,94.93c.1.011,30.771,3.311,30.873,3.332.248.051.3.059.357.116.188.2,6.115,22.325,6.138,22.425.154.66.506,1.175-.175,1.341-1.64-6.433-2.095-8.712-5.382-20.254-.2-.7-.44-2.735-1.022-3.054-.106-.027.516.055-31.269-3.371Zm42.135,24.588a5.986,5.986,0,0,1-2.2.077c-.736-.088-2.483-.16-2.483-.846Zm-4.942-1.318-.11-.549,7.469,1.318C111,119.442,108.422,118.575,106.006,118.2Zm2.306,1.867-1.644.416-.223-.635Zm12.521-1.207c0,.582,0,.878.006,1.287-.288.122-14.03,3.947-14.13,3.974a2.53,2.53,0,0,1-1.417.12c-35.022-6.915-30.1-5.546-30.534-5.678-.45-.219-.362-.439-.494-1.043,33.763,5.619,30.778,5.292,31.753,5.184C106.12,122.684,120.73,118.888,120.833,118.86Zm-13.949,3.184c0-.823-.34-.933.44-1.1l6.809-1.559c.264-.056.736-.066.769-.407.046-.471-.519-.419-8.248-1.767-.813-.142-1.1-.089-1.1-1.1l14.5,2.524ZM68.29,95.85c24.05,2.6,6.07.527,30.833,3.32,1.044,2.523,6.092,21.443,6.422,23.117-18.154-3.025-27.887-4.584-31.215-5.217C74.237,116.962,68.321,95.957,68.29,95.85ZM46.915,165.868l-4.25,1.373c-.143-11.817-.209-43.011-.209-46.811a24.864,24.864,0,0,1,4.393,1.5C47.172,123.032,46.915,123.1,46.915,165.868Zm62.32-8.907c-.385.823-.56,1.779-.978,2.582-.758,1.437-3.648.873-4.9.471a5.677,5.677,0,0,1-3.5-3.1c-.516-1.736-.132-4.042,0-5.811A53.026,53.026,0,0,1,104.5,134.39c.64.107,9.236,2.091,11.906,2.5a72.871,72.871,0,0,0-4.218,13.509C111.68,153.245,110.6,154.13,109.235,156.961Zm15.547.539c-3.077,6.092-2.284,3.965-3.74,7.687-.923,2.2-3.578,1.885-5.492,1.362a5.233,5.233,0,0,1-3.921-4.821,26.628,26.628,0,0,1,.132-4.032,55.757,55.757,0,0,1,.857-6.676c.974-5.227,3.73-13.9,4.371-14.1.4.008,7.53,1.324,7.589,1.406C124.6,138.354,124.8,156.773,124.782,157.5ZM157.3,136.983c1.719,5.253,1.169,8.41.846,17.562-.1,2.943-.176,5.875-.308,8.787-.066,1.361-.878,1.723-2.021,2.2-1.406.635-2.735,1.416-4.174,1.986-.395-3.865-.307-7.82-.593-11.7-1.051.451-6.5,2.053-10.071,3.153-.648.2-.846.142-.934.823-.336,2.707.3,5.306-.175,9.786-.121.967-.572,1.308-1.428,1.7-1.571.725-3.295,1.186-4.877,1.8,0-.232.163-23.87.165-25.57a4.638,4.638,0,0,1,1.526-1.383c7.135-5.252,10.131-5.107,16.673-7.854a23.489,23.489,0,0,0,4.822-2.658A10.432,10.432,0,0,1,157.3,136.983Zm-.659-1.977c-6.651,4.777-15.046,4.282-22.845,11.532V138.63c0-.671-.105-.573.417-.77,2.691-1.013,26.142-7.421,26.272-7.457A11.566,11.566,0,0,1,156.639,135.006Zm9.446,35.036c-.681-.407-2.483-1.362-2.68-2.2-.1-.946.193-35.776,0-38.5l2.581-.714C166.019,131.962,166.085,170.042,166.085,170.042ZM130.85,132.578c-.966.208-.8.2-.8,1.1,0,.1.017,59.878,0,59.979a.451.451,0,0,1-.769.132c-.1-.175.016-61.188,0-61.21-.1-.027,1.52.322-90.173-17.925.1-.012,32.517-3.363,33.148-3.405.027.1,1.821,6.734,1.988,7.315.252.473,1.1.438,1.691.549,32.326,6.02,29.84,5.693,30.622,5.47,14.461-4.136,14.538-3.885,14.612-4.131a3.061,3.061,0,0,0,.036-.675c0-.187.064-1.052-.062-1.157-.269-.224-15.78-2.877-15.78-2.877a12.553,12.553,0,0,1-.377-1.452c8.6,1.348,40.88,6.338,40.88,6.338.517.087,1.033.5,1.527.5a4.636,4.636,0,0,0-1.615,1.307c-.428.715,0,1.1.78.99-.527.053-.878.855-.483,1.217a1.558,1.558,0,0,0,1.626-.065c-.264.22,0,.516.219.615.418.2,1.1-.252,1.362-.473.708-.622,1.939-2.1,1.746-2.2s-1.016,1.083-1.542,1.6c-.176.143-1.105.954-1.412.713-.5-.4,1.988-2.088-.5-.858-.264.133-1.241.594-1.011,0,.143-.362,1.889-.8,1.758-1.219s-2.933,1.044-2.01-.207c.307-.418,1.625-.935,1.691-1.4s-1.1-.154-1.164-.736.826-.621,1.177-.639a5.545,5.545,0,0,1,.943.09c.263.143.582.758.769.989a4.654,4.654,0,0,0,3.613,2.042c1.373.067,2.572-.638,3.91-.417,14.573,2.405,9.528,1.678,10.632,1.857C159.725,126.219,135.035,131.677,130.85,132.578Z"/></svg>