<?xml version="1.0" ?><svg viewBox="0 0 200 200" fill="#fff" xmlns="http://www.w3.org/2000/svg"><path d="M83.174,63.7c-1.626-.216-15.956-.212-18.579,0a.168.168,0,0,0,0,.332c2.317.2,16.93.293,18.529.088C83.346,64.1,83.424,63.734,83.174,63.7Z"/><path d="M150.721,88.72c-.2.048-2.769.91-2.088,1.279l.714.6c-.152.365,1.415,1.952.333,5.86-.453-.309-.462.024-.4.1,1.675,1.719,13.6,11.266,16.26,12.957.244.345,1.76-.4,1.96-.484a159.231,159.231,0,0,0,15.447-7.6c1.835-1.038,1.815-4.589-.4-6.011a66.482,66.482,0,0,0-7.287-4.2l3.107-2.429c.216-.172.092-.8-.75-.124a14.722,14.722,0,0,1-2.06-9.791c.112-.072,1.455-.874.862-1.126-2.986-1.251-12.934-4.9-16-5.091-1.03-.068-8.982,6.329-9.748,7.616-1.6,2.669-1.11,5.723.057,8.416Zm-.8,7.892c1.006-1.09.69-4.084.2-5.407,1.366,1.106,12.38,9.4,15.883,11.623,1.891,4.016-.224,5.94-.152,6.245v-.036C159.984,105,155.235,100.347,149.924,96.612Zm32.589-.453h0c1.671.858,1.29,4.445.088,4.866-5.439,2.905-10.821,5.523-16.433,8.048a6,6,0,0,0,1.151-3.447l7.695-3.158c.136-.073.024-.261-.109-.229a69.719,69.719,0,0,0-7.579,3.046,5.067,5.067,0,0,0-.869-2.713C168.8,101.586,180.805,95.357,182.513,96.159ZM165.84,86.007a101.484,101.484,0,0,1,9.218-6.79,12,12,0,0,0-.128,3.692c-.485.164-6.549,4.6-6.862,4.841-.128.1.028.313.161.229l6.773-4.6c.212,1.414,1.062,4.625,2.372,5.491-1.334,1.078-7.911,6.288-9.514,6.288a8.454,8.454,0,0,1-2-9.15Zm-1.311-8.625c.705.6-2.2,2.288-2.312,2.32-.325.1-.545-.244.168-.917C162.738,78.464,164.06,76.981,164.529,77.382Zm-5.451,1.663c.5-1.022,2.585-2.653,3.467-3.254a.4.4,0,0,1,.453.657c-.773.605-2.9,2.593-3.487,2.97a.3.3,0,0,1-.433-.373Zm-7.342,1.736a108.9,108.9,0,0,1,12.625,4.268c.256.132.164.569-.145.509a111.269,111.269,0,0,1-12.6-4.349.224.224,0,0,1,.124-.428Zm-.714,8.416c4.766,2.69,13.647,6.108,16.974,6.609.669.1,6.112-3.719,6.989-4.368.586.573,5.416,3.306,6.646,4.064-1.779.092-14.705,6.112-15.631,6.7-5.555-4.156-11.306-8.365-17-12.316l2-.69Z"/><polygon points="83.168 63.699 83.174 63.702 83.18 63.703 83.168 63.699"/><path d="M99.407,44.641a.263.263,0,0,0-.183.016h.016c-.585.365-4.008,4.99-4.694,5.876-.661-.9-1.33-1.8-2.036-2.666-.128-.16-.4.036-.3.213.669,1.066,1.383,2.1,2.112,3.126.12.168.357.084.457-.044.625-.8,4.641-5.643,4.809-6.2A.263.263,0,0,0,99.407,44.641Z"/><path d="M80.342,65.642v-.008c-6.04.117-12.653-.04-15.23.213a.2.2,0,0,0,0,.4c3.1-.032,12.745.32,15.23-.2C80.547,66,80.507,65.7,80.342,65.642Z"/><path d="M80.563,55.591c.192,0,.26-.337.032-.369-2.028-.3-14,.292-16.914.733a.2.2,0,0,0,0,.4c3.92.032,12.826-.605,16.862-.749Z"/><path d="M76.579,57.591l.008,0c.168-.049.264-.341.04-.4-1.026-.253-10.99.036-12.5.168a.185.185,0,0,0,0,.365C65.958,57.843,75.4,57.911,76.579,57.591Z"/><path d="M104.21,117.145c0-.012.009-.021.012-.032l0-.012Z"/><path d="M97.9,63.089c.549-.8-5.479-.513-5.735-.24s-.04,4.381-.02,4.765c.036.59,5.591.578,5.8.4a15.968,15.968,0,0,0-.048-4.906Zm-.429,4.477c-.533-.008-4.461.072-4.777-.176q-.066-2.11-.137-4.212l4.962.028A21.268,21.268,0,0,0,97.468,67.566Z"/><path d="M168.4,90.885c1.4-.834,2.825-1.648,4.18-2.549.193-.129-.024-.465-.22-.345l-4.108,2.657C168.12,90.736,168.253,90.965,168.4,90.885Z"/><path d="M158.325,101.862c-.128-.079-.285.113-.164.213,1.014.869,5.915,4.3,7.017,5.066.14.1.261-.128.129-.229C163.186,105.309,160.545,103.2,158.325,101.862Z"/><path d="M93.536,59.615c.521.024,4.59.468,4.549-.209-.028-.529-.092-4.521-.356-4.637h-.008c-.072-.673-5.139-.18-5.611-.092-.285.048-.173,3.9-.153,4.376C91.989,59.727,93.087,59.591,93.536,59.615Zm3.932-4.6c-.016,1.4.008,2.806.052,4.209a31.857,31.857,0,0,0-5.066-.1,31.946,31.946,0,0,0-.132-4.089C93.152,55.017,96.943,55.126,97.468,55.017Z"/><path d="M164.942,105.217a.128.128,0,0,0,.148-.208c-4.577-3.247-9.134-7.159-13.627-10.213-.136-.092-.336.1-.2.221,2.525,2.405,10.388,7.992,13.687,10.2Z"/><polygon points="177.751 99.478 177.757 99.48 177.767 99.478 177.751 99.478"/><path d="M98.065,48.192a.176.176,0,0,0-.34,0L97.7,51.7l-5.539.028c.076-.529-.453-4.261-.537-4.81a31.553,31.553,0,0,0,4.681-.128.14.14,0,0,0,.032-.264c-.365-.125-4.962-.525-4.858.276-.457-.032.209,5.022.209,5.03.24.617,1.246.4,1.783.4s4.205.1,4.505-.024c.485-.2.213-3.4.1-4.008Z"/><path d="M194.7,138.908l.02-.02q-19.11,1.165-38.228,1.968a30.738,30.738,0,0,0-.97-5.391q19.006-.494,38.008-1.162a.293.293,0,0,0,0-.582q-19.074.7-38.156,1.167c-2.954-10.457-9.326-20.413-16.71-28.288-.228-2.662-.24-4.052-1.378-6.67-2.2-5.046-4.625-6.1-4.569-4.9a3.126,3.126,0,0,0,.156.934c-.4-.5-3.347-3.563-3.948-1.908a3.421,3.421,0,0,0-3.033-.341c-1.868-3.018-5.05-3-7.022-4.056-3.82-2.036-2.056-8.377.749-10.757,0,0,12.07-.229,12.084-.381.212-2.826,2.621-45.9,2.621-45.9-29.735-.589-61.73-.04-91.253.6-.2,0-.376.132-.352.313,1.779,15.15,6.147,46.163,6.147,46.163.722.284,66.092-.733,69.98-.789a9.705,9.705,0,0,0-2.553,6.689c.2,6.3,5.21,3.615,9.3,8.228-2.653,1.143-3.01,4.509-1.98,6.914a5.1,5.1,0,0,0,.737,1.3,5.789,5.789,0,0,0,.774,2.665c1.283,2.433,3.559,3.278,3.687,3.635-.04,5.655,1.182,12.561,2.313,18.08-3.808-1.984-15.106-6.773-26.729-7.11.657-5.727,5.607-6.453,4.93-10.28q3.1-.117,6.208-.261c.521-.024-.044-1.6-.1-1.872q-1.267-5.543-2.529-11.078c-.128-.5-.718-3.855-1.2-3.855l-6.448.112c-1.419-1.351-4.754-1.848-6.116-.281-1.984-3.847-8.173-3.29-8.373.457-1.7-1.15-4.2-1.379-5.736.181-.156.068-30.412.473-34.9.657a.217.217,0,0,0-.152.325c.08.525-2.525,12.865-2.838,15.831-.044.425,4.525.365,5.038.365-6.456,7.571-12.272,16.108-14.027,26.1-10.9-.168-21.8-.432-32.7-.4a.2.2,0,0,0,0,.4c10.845.477,21.727.521,32.584.606a32.131,32.131,0,0,0-.4,5.991c-10.8-.228-21.591-.569-32.389-.745-.24,0-.276.377-.032.377,10.8.557,21.623.754,32.445.918.276,5.422,2.416,12.088,7.743,14.524,2.188,4.305,6.829,8.169,11.956,7.066-.145.774-.293,1.576-.437,2.378-.064.356.477.512.541.151,1.463-7.919,2.97-15.879,5.567-23.522.08-.237-.285-.333-.369-.1-2.505,6.645-3.912,13.619-5.21,20.576-5.291.766-9.515-2.6-11.7-7.162a20.016,20.016,0,0,1-.838-15.595c2.733-7,10.016-12.035,17.138-15.414a70.012,70.012,0,0,1,23.054-6.413c.565,5.343,6.7,7.15,11.386,6.87s7.451-1.708,7.851-6.433c.061.048,16.894.377,31.423,10.08,4.269,2.849,8.144,6.513,10.421,11.166,2.216,4.493,2.99,9.964,1.014,14.681-2.854,6.814-8.08,7.8-11.535,8.417a71.212,71.212,0,0,0-6.982-21.026c-.088-.172-.369-.064-.284.12a87.723,87.723,0,0,1,7.214,24.2c.039.261.524.329.524,0a16.209,16.209,0,0,0-.36-2.713,14.442,14.442,0,0,0,9.719-5.026c8.036-2.036,11.491-10.653,11.03-18.268q19.15-.782,38.28-1.984C195.125,139.4,195.03,138.908,194.7,138.908ZM48.912,73.466v.016c-2.028-12.725-3.591-25.382-5.4-38.112,29.992-.517,60.781-.3,90.367-.8l-2.308,37.514C119.079,72.452,50.515,72.845,48.912,73.466Zm60.3,35.089h0a2.714,2.714,0,0,0-.977-1.306,5.283,5.283,0,0,0,.8-2.749h.541q.377,2,.754,4.008Zm-.845-7.33a3.194,3.194,0,0,0,.477-.453c.232,1.07.433,2.136.633,3.207h-.433A5.154,5.154,0,0,0,108.366,101.225Zm6.845,7.074q-2.3.108-4.6.2c-.116-1.347-.385-2.678-.621-4.008a34.063,34.063,0,0,0,4.313-.113Q114.753,106.34,115.211,108.3ZM114.2,103.93h.009l-.008,0v0l-4.3.036q-.364-1.875-.726-3.743l4.156-.12Zm-.993-4.3-3.911.116a3.131,3.131,0,0,0-.8-2.645c-.068-.3-.128-.613-.2-.918l4.112-.088Zm-1.527-7.142h0c.217,1.034.413,2.072.618,3.11l-4.117.068a26.861,26.861,0,0,0-.8-3.106Zm-3.775,4.244a2.226,2.226,0,0,0-1.551-.116c.042-.124.078-.249.108-.377l1.322-.024Zm-.982-4.164a28.188,28.188,0,0,0,.733,3.11l-1.11.02a4.4,4.4,0,0,0-.854-3.106ZM82.687,93H82.7l1.924-.036a2.874,2.874,0,0,0-.4,2.132l-1.7.489C82.6,94.76,82.687,93.8,82.687,93Zm-.541,0v0h0l-.024,2.793a4.915,4.915,0,0,0-.489.329L76.9,96.2a20.811,20.811,0,0,0-.088-3.11Zm-2.092,7.25-.016.012H76.9V96.748l4.125-.072A4.044,4.044,0,0,0,80.054,100.247Zm-3.139,4.629v.008l2.734-.032a4.023,4.023,0,0,0,.922,2.377,2.313,2.313,0,0,0-1.006,2.056h-2.7Q76.915,107.084,76.915,104.876Zm2.962-1.2,0,0a2.668,2.668,0,0,0-.188.649l-2.77.032v-3.607H80.2a3.2,3.2,0,0,0,1.122,1.487A3.284,3.284,0,0,0,79.877,103.674Zm-3.35,5.635v0q-6.194.04-12.385,0c.124-1.719.012-2.8,1.11-4.284l11.17-.129C76.446,106.371,76.479,107.838,76.527,109.309ZM65.7,104.484a9.66,9.66,0,0,0,2.305-3.736H70.5c-.02,1.223-.02,2.449-.02,3.675v.008ZM71.144,93.2l5.238-.092a28.181,28.181,0,0,0-.032,3.114l-5.266.088C71.112,95.277,71.124,94.239,71.144,93.2Zm-.076,3.659h.016l5.282-.092v3.5H70.972C71.008,99.133,71.036,98,71.068,96.86Zm-.112,3.88,5.414,0q.016,1.8.044,3.607l-5.635.064C70.863,103.189,70.916,101.967,70.956,100.74Zm-5.042-7.451,4.789-.084L70.6,96.319l-4.882.08A20.717,20.717,0,0,0,65.914,93.289Zm-.245,3.656,4.91-.089-.084,3.4H68.126c.128-.545.345-1.447-.309-1.747-.729-.337-1.262,1.194-2.464,1.735q.156-1.647.316-3.294Zm-4.276-3.572v.02l4.132-.076a29.069,29.069,0,0,0-.273,3.111h-.268c.429-1.047-1.892-1.728-3.9,0C61.14,95.9,61.425,93.714,61.393,93.373Zm3.815,3.608h-.017q-.1,1.631-.2,3.258H63.449c-.3-.882,0-2.946.8-3.258h.941v-.024ZM60.884,93.4l-.169,3.1-1.863.032c-.742-1.531-.277-2.706-1.03-3.074Zm-.4,3.663A4.319,4.319,0,0,0,59.9,98l-.746-.91ZM54.09,93.526l3.207-.052c-.986.481-1.151,2.176-1.151,3.106l-1.511.036c-.509-.433-.729.024-1.106.024l.541-3.114Zm2.217,5.082v.016l0-.018a3.884,3.884,0,0,1-1.272-1.465h1.126a8.892,8.892,0,0,0,.146,1.465Zm-3.343,1.507.008-.016q.233-1.472.477-2.938a6.935,6.935,0,0,0,.373,2.954Zm.994.485c.409,1.367.966,2.621,1.282,4.008q-1.47.024-2.945.06c.2-1.355.4-2.714.6-4.068Zm-3.631-7.058v-.028c1.094.02,2.184,0,3.278,0-.184,1.042-.364,2.08-.545,3.122-1.094.028-2.188.068-3.278.112A25.618,25.618,0,0,0,50.327,93.542Zm-.622,3.643v-.028h3.267c-.156.978-.317,1.952-.473,2.93H49.18C49.353,99.121,49.529,98.151,49.705,97.185Zm-.609,3.283h.016c1.1.06,2.2.088,3.3.108-.189,1.358-.409,2.721-.589,4.084q-1.757.048-3.511.132.4-2.16.8-4.324Zm2.253,8.673c-1.287-.02-2.573-.02-3.86-.02l.012-.04q.377-2,.778-4.008l3.471.088A37.424,37.424,0,0,0,51.349,109.141Zm.284.008h.012l.593-3.988h3.111a3.971,3.971,0,0,1,0,.8q-1.416,1.6-2.806,3.207ZM44.82,139.882v-.008a20.364,20.364,0,0,0,.228,16.869c-9.679-6.545-7.615-21.022-3.5-30.244,3.371-7.566,8.714-14.028,14.18-20.168.8-.91-1.787-7.03-1.871-8.493-.064-1.11.4-1.338.8-.549.357.678.994,1.688,1.812,1.88.325.946.569.637.533.489-.341-1.651-.93-4.04.172-5.515.8-1.066.766.886.846,1.271.188.905,1.022,2.665,1.731,2.969-.248.71.169.461.2.369,1.419-3.731,5.759-3.206,4.36-2.28a2.78,2.78,0,0,0-1.35,2.112c-.517,3.523,2.268,2.95,4.288.537.834-.994.882,1.15-.453,3.322-1.126,1.832-2.661,2.493-2.841,4.9-.5,5.9-1.7,12.922-2.521,18.108C54.844,128.659,48.046,133.012,44.82,139.882ZM62,125.185v-.012a143.077,143.077,0,0,0,2.088-15.387H79.6c.581,3.355,4.741,3.8,5.415,9.014A69.157,69.157,0,0,0,62,125.185Zm42.22-8.072a11.351,11.351,0,0,0-.481,2.421c-.405,4.24-2.2,5.643-6.914,6.043-5.014.409-10.421-1.166-11.178-6.56-.67-4.8-2.2-4.373-4.678-7.736-.737-1.006-1.4-2.858-.024-3.639a6.3,6.3,0,0,0,2.513,1.679c2.161,4.846,2.894,10.441,9.171,11.058,12.136,1.13,9.422-5.479,13.266-11.246a6.9,6.9,0,0,0,1.968-1.419,2.537,2.537,0,0,1,.649,3.066C107.587,113.1,105.234,114.03,104.222,117.113ZM128.946,94.68h-.015q.511,1.134,1.03,2.273c-.489-.63-2.894-3.255-3.7-1.856-.4.729.453,1.824.8,2.477a5.282,5.282,0,0,0-3.351,2.08C122.481,95,127,92.676,128.946,94.68Zm-4.512,6.814v0c-.2-.473-.4-.95-.6-1.423a6.51,6.51,0,0,1,3.423-2.12,11.539,11.539,0,0,1,1.082,3.691c.269,2.565-1.691.733-2.641-.144C125.331,101.157,124.706,100.953,124.434,101.494ZM146.08,158.9l-.011.017.008-.016h0c3.315-4.643,3.453-10.634,1.532-15.874-2.722-7.411-9.195-12.6-15.972-16.228a122.845,122.845,0,0,1-2.537-18.361c.02-.937-3.183-1.583-4.168-5.266-.185-.677-.553-2.429.657-1.17s3.27,2.42,3.174-.345c-.112-3.271-2.336-5.447-2.14-6.188.253-.926,2.108.817,2.4,1.122a20.712,20.712,0,0,1,2.117,2.757c.112.165.381.032.281-.148q-.337-.6-.722-1.2c.168-.341-1.635-3.515-1.319-3.816.413-.393,1.764.738,2.08,1.01,1.676,1.447,1.752,2.413,2.321,3.17a.131.131,0,0,0,.081.036.137.137,0,0,0,.148-.124,4.456,4.456,0,0,0-.61-1.435c-.1-.573-.549-1.434-.3-1.775.124-.108.805.409.893.481a8.111,8.111,0,0,1,1.624,2.184c3.058,5.234,2.14,8.6,2.657,9.106,7.595,8.553,15.707,21.078,17.346,32.376C156.758,147,154.29,156.135,146.08,158.9Z"/><path d="M73.6,50h.012c.232-.072.14-.4-.068-.432-3.644.072-7.507-.044-11.1.1-.281,0-.241.429,0,.473C64.266,50.444,72.038,50.488,73.6,50Z"/><path d="M169.07,103.478c1.363-.59,8.016-3.267,8.794-3.716a.154.154,0,0,0-.107-.282c-1.678.352-7.115,2.937-8.807,3.781C168.805,103.333,168.926,103.542,169.07,103.478Z"/><path d="M101.985,80.023q-10.6.151-21.2.313C81.713,90.6,102.266,90.756,101.985,80.023Z"/><path d="M102.006,57.96a.168.168,0,0,0,.167.168c3.383.084,10.553.3,13.262-.077.229-.032.153-.372-.043-.372-3.828-.032-9.359.04-13.227.112h.008A.168.168,0,0,0,102.006,57.96Z"/><path d="M72.964,42.949h.008c.276,0,.16-.4-.069-.436-6.889.2-14.392.348-21.109.5a.172.172,0,0,0,0,.34C56.707,43.751,66.647,43.218,72.964,42.949Z"/><path d="M76.851,40.709h.012c.229,0,.3-.4.044-.429-2.24-.272-24.332.092-25.867.425-.152.032-.144.309,0,.309C56.651,40.953,70.242,40.613,76.851,40.709Z"/><polygon points="33.377 112.135 33.377 112.134 33.377 112.127 33.377 112.135"/><path d="M33.8,112.311a19.423,19.423,0,0,0,1.755-4.509,3.261,3.261,0,0,0-.6-3.206,7.657,7.657,0,0,0,.553-2.862c-.2-1.631-1.927-1.531-2.861-.289-3.752,5-7.884,12.958-7.772,19.154-.068.293.084.626.349.377a37.889,37.889,0,0,0,9.551-15.791c1.254,1.859-.681,5.065-1.4,6.949C33.293,112.381,33.667,112.525,33.8,112.311ZM25.257,120.2h-.016a22.418,22.418,0,0,1,.461-3.3l1.559,1.054C26.612,118.724,25.942,119.465,25.257,120.2Zm9.29-16.02v-.012a5.115,5.115,0,0,0-2.356-1.114,8.654,8.654,0,0,1,1.2-1.7c.449-.421,1.311-.6,1.567.121A5.464,5.464,0,0,1,34.547,104.175Z"/><path d="M60,53.246c-.437.188-2.99,4.008-3.463,4.673a12.4,12.4,0,0,0-1.968-2.088.173.173,0,0,0-.233.071.171.171,0,0,0-.015.121,15.986,15.986,0,0,0,2.028,2.59.3.3,0,0,0,.43-.009.288.288,0,0,0,.043-.056l3.206-4.468c.465-.646.333-.982,0-.834Z"/><path d="M120.021,48c.212,0,.248-.4.024-.425a146.329,146.329,0,0,0-18.729.26c-.209.02-.185.373.023.365C105.969,48.156,114.85,48.308,120.021,48Z"/><path d="M59.974,59.306l-.008.02c.4-.16-.4-3.134-.509-3.607a.16.16,0,0,0-.313.048c.112,1.074.241,2.148.437,3.206-1.667.125-3.182.113-4.809.185-.3-1.3-.566-3.046-.974-4.289a23.234,23.234,0,0,0,3.783.024c.83,0,.774-.521.06-.509-.425,0-4.008-.072-3.976.353-.465-.028.521,4.192.586,4.477a.238.238,0,0,0,.212.184C54.551,59.875,59.814,59.8,59.974,59.306Z"/><path d="M120.56,55.8a.178.178,0,0,0-.17-.142c-6.057-.161-12.541.136-18.682.12-.176,0-.192.3,0,.317,5.379.364,13.7.589,18.726-.081h-.012A.179.179,0,0,0,120.56,55.8Z"/><path d="M54.567,52.076v-.008a28.344,28.344,0,0,0,4.2-.193c.87.225-.452-5.23-.613-5.487a.249.249,0,0,0-.256-.136c-.9,0-5.078-.056-5.672.124-.713-.573.337,4.353.481,4.946C52.952,52.324,53.641,52.084,54.567,52.076Zm-2.22-5.343,0-.008A26.617,26.617,0,0,0,57.9,46.8l.641,4.625-5.242.265C53.349,51.358,52.475,47.386,52.347,46.733Z"/><path d="M115.825,50.1a.2.2,0,0,0,0-.4c-1.243-.257-11.908.124-14.117.312-.172,0-.172.3,0,.3l0,0C102.907,50.372,114.63,50.4,115.825,50.1Z"/><path d="M31.846,81.823c.2-.029,1.6-.8,1.936.493.457,1.783,2.256.713,2.553-.642.369-1.687-1.23-3.006-3.126-3C29.365,78.672,30.247,82.039,31.846,81.823Zm1.363-2.766c2.156.068,3.491,2.112,2.176,3.315-1.11,1.006-.974-.445-1.539-.954-1.074-.966-1.94.216-2.549-.3C30.046,80.071,32.443,79.033,33.209,79.057Z"/><path d="M56.631,62.769c-1.571,0-1.631-.257-1.431,1.266.06.437.365,3.479.89,3.5.108.477,4.6.317,5.174.141.766,0,0-2.369-.036-2.638C60.6,61.562,61.421,62.637,56.631,62.769Zm-.288,4.544h0c-.253-1.266-.441-2.933-.8-4.135a18.34,18.34,0,0,0,4.91-.137,25.7,25.7,0,0,0,.649,4.128C59.541,67.2,57.922,67.277,56.343,67.313Z"/><path d="M122.129,40.12h0c-1.836-.172-28.332.036-31.691.256a.169.169,0,0,0,0,.333c2.842.148,29.659.076,31.7-.144a.225.225,0,0,0,0-.445Z"/><path d="M77,47.474l.012.016c.232-.048.144-.364-.056-.4l-15.187.38a.169.169,0,0,0,0,.333C65.573,48.056,73.685,48.14,77,47.474Z"/><path d="M137.227,75.582c.072.762.837,8.341,1.118,8.886,2,3.9,9.354,4.008,9.519-1.768.277-2.4,1.243-9.29.866-11.014.108-.561.685-3.006.8-4.288,0-.2.4-5.916-.4-5.05a31.879,31.879,0,0,0-2.83,4.517c-.144.6-.285,1.2-.429,1.8a7.01,7.01,0,0,0-1.375-.352c-.028-.4-.3-2.405-.441-3.207-.685-1.334-1.394-2.537-1.955-3.927-.85-2.093-.87-2.129-1.106.168-.365,3.551-.485,3.559-.045,7.082-4.529.934-4.056,3.607-3.727,7.142Zm10.942-11.03h.008l0,0a1.18,1.18,0,0,0,.925.336v2.521a3.189,3.189,0,0,1-2.353-.745c.5-.689.964-1.4,1.428-2.112Zm-1.44,2.63a3.9,3.9,0,0,0,2.269.709c-.328,1.856-.657,3.711-.917,5.579-.341,1.218-1.976,1.659-3.079,1.808C145.656,72.668,146.157,69.835,146.729,67.182Zm-2,7.374a6.36,6.36,0,0,0-.095.766l-2.437.056-1.046-9.415a2.9,2.9,0,0,0,2.661-.525S144.5,74.444,144.725,74.556Zm-3.414-11.8a1.137,1.137,0,0,0,.906-.132l1.374,2.456a2.9,2.9,0,0,1-2.544.457A12.533,12.533,0,0,1,141.311,62.757Zm6.934,11.519v.008c-.184,2.513-.509,7.831-1.15,10.212-1.159,3.1-6.169,3.142-8.373-.024q-.63-5.21-1.255-10.421C139.343,76.821,146.61,76.488,148.245,74.276Z"/><path d="M13.81,85.33A22.817,22.817,0,0,0,18.6,87.181c-3.183,4.385,5.944,10.649,14.3,7.311,3.832-1.527,7.655-6.389,3.908-9.76,4.04-3.234,5.415-7.895,5.242-12.985C41.778,63.871,38.3,58.071,30.327,56.2a19.51,19.51,0,0,0-11.775.914q-.762-1.354-1.535-2.7.736-.4,1.5-.733c1.322-.449.917-1.415.14-1.13C3.321,58.144-.218,78.288,13.81,85.33Zm4.914,1.146V86.46c-.281-.958.465-1.976.12-3.09-.8-2.594-4.156-1.095-5-2.838-.934-1.916,1.547-2.244,2.052-3.607a1.458,1.458,0,0,0-.26-1.435c-1.447-1.8-4.774.1-3.828-4.1.722-3.174,3.78-4.673,6.012-3.267s3.555,2.337,6.361.694c4.677-2.75,4.1,3.006,2.673,4.741-.761.942-2.144.894-3.206,1.295-3.455,1.294-3.439,3.627-.694,4.2,1.063.221,2.413.116,3.251.918,2.244,2.2-2.405,6.878-3.872,7.639C21.53,87.466,19.125,86.981,18.724,86.476ZM31.405,57.061c5.892,1.828,9.042,6.085,9.844,12.181a21.25,21.25,0,0,1-.293,7.9c-.24.333-3.615,1.259-4.705-.144a4.435,4.435,0,0,1-.682-3.944c.65-1.679,2.862-3.158,2.177-4.886-.938-2.376-3.684.87-4.846.2-1.735-.982,1.519-2.926-2.2-3.607-1.379-.257-2.489.308-3.5-1.2-2.313-3.458,3.7-6.464,4.2-6.484ZM20.023,61.486v.008a.352.352,0,0,0,.621-.324q-.91-1.772-1.82-3.551a18.959,18.959,0,0,1,11.663-.8c-4.957,1.655-5.583,7.29-2.052,8.26.766.217,4.165-.084,3.571,1.367a1.826,1.826,0,0,0,1.107,2.537c1.4.249,2.9-1.864,3.927-1.01,1.8,1.5-2.9,3.816-2.1,7.162.6,2.557,1.655,3.371,4.257,3.034a4.115,4.115,0,0,0,1.627-.493c-2.156,7.523-10.2,11.01-17.547,10.088,1.487-1.366,3.788-4.064,3.976-6.044.333-3.434-3.615-2.749-5.066-3.511-1.984-1.038.862-2.741,2.689-3.142A5.561,5.561,0,0,0,26.6,74.5c2.994-1.84,2.172-9.234-2.181-6.5-3.715,2.329-4.869.345-6.6-.545-2.769-1.411-6.573.814-6.753,5.034-.112,2.846,2.232,2.241,3.607,2.95a1.11,1.11,0,0,1,.7,1.25c-.32,1-1.771,1.2-2.172,2.4a2.22,2.22,0,0,0,.938,2.589c1.3.754,3.623.1,4.176,1.908.269.878-.26,1.78-.2,2.669A14.63,14.63,0,0,1,8.532,74.3c-.87-6.806,3.274-13.415,9.374-16.289C18.536,59.158,19.333,60.36,20.023,61.486Zm-9.018-2.665a21.162,21.162,0,0,1,5.122-3.908,27.289,27.289,0,0,1,1.531,2.649,16.806,16.806,0,0,0-9.679,16.75,14.288,14.288,0,0,0,5.747,10.02C4.191,78.957,3.79,66.476,11.005,58.821Z"/><path d="M117.728,65.875V65.9c-.861-.184-13.719-.245-15.538,0-.2.032-.165.317.019.345.69.1,14.133.328,15.543.032a.2.2,0,0,0-.024-.4Z"/><path d="M122.025,42.865v.016c-9.655.113-22.124-.22-30.829,0-.241,0-.221.337,0,.361,3.651.4,27.887.373,30.829.052a.216.216,0,0,0,.185-.244A.218.218,0,0,0,122.025,42.865Z"/><path d="M120.935,63.7v-.016c-5.856-.125-13.167.232-19.4.072-.176,0-.22.26-.036.276,3.831.381,15.816.77,19.435.068C121.155,64.059,121.183,63.7,120.935,63.7Z"/></svg>
