<?xml version="1.0" ?><svg viewBox="0 0 200 200" fill="#fff" xmlns="http://www.w3.org/2000/svg"><path d="M100.735,56.376a.163.163,0,0,0,.116.042c14.373-.461,75.561-5.409,75.753-5.971a23.679,23.679,0,0,0,.591-2.5c.6-3.066.953-4.229.238-4.2-3.222.151-75.967,5.96-76.1,6.436A19.229,19.229,0,0,0,100.8,53.2a23.766,23.766,0,0,0-.12,3.062A.16.16,0,0,0,100.735,56.376Zm.944-5.956c38.905-2.966,68.891-5.469,75.3-5.845-.214,1.317-.687,4.089-1.058,5.368-17.229,1.521-63.07,5.621-74.914,6.148A22.365,22.365,0,0,1,101.679,50.42Z"/><path d="M174.212,89.556c.708-1.533.785-6.895.794-6.995.013-.605,4.343-.705-76.659-1.506-.422-.005-.809,2.5-.873,3.152a15.055,15.055,0,0,0,.008,3.1.162.162,0,0,0,.15.139C111.241,88.493,173.936,90.153,174.212,89.556ZM97.791,87.132a13.5,13.5,0,0,1,.687-5.681c47.764.922,70.411,1.227,75.716,1.482a31.692,31.692,0,0,1-.618,6.048C159.724,88.739,109.605,87.9,97.791,87.132Z"/><path d="M106.748,61.986h0c-2.651-.382-5.338,1.773-5.8,5.14-.67,5.421,4.859,8.717,8.481,5.064C112.847,68.742,111.171,62.372,106.748,61.986Zm2.125,9.651c-3.134,3.1-7.7.22-7.2-4.426a5.833,5.833,0,0,1,1.543-3.486,4.306,4.306,0,0,1,3.5-1.419v0C110.643,62.875,111.885,68.661,108.873,71.637Z"/><path d="M126.354,61.427h0c-4.405-.646-7.492,5.14-4.942,9.326a4.737,4.737,0,0,0,7.62.878C132.48,68.155,130.726,61.808,126.354,61.427Zm2.124,9.651c-3.142,3.107-7.7.2-7.2-4.426.265-2.816,2.451-5.131,5.039-4.905v0C130.211,62.311,131.538,68.055,128.478,71.078Z"/><path d="M123.161,96.352v0a4.713,4.713,0,0,0-3.988,1.141c-3.7,3.166-2.449,9.721,2.03,10.481a4.892,4.892,0,0,0,4.105-1.294C128.923,103.394,127.521,96.962,123.161,96.352Zm1.623,9.749a4.135,4.135,0,0,1-3.448,1.083c-3.773-.631-4.887-6.348-1.793-9.279a4.314,4.314,0,0,1,3.565-1.236v0C126.965,97.433,128,103.239,124.784,106.1Z"/><path d="M147.552,60.756v0c-4.379-.634-7.5,5.17-4.942,9.325,2.685,4.366,8.826,2.448,9.411-3C152.348,63.66,150.188,60.986,147.552,60.756ZM151.306,67c-.57,4.62-5.67,6.408-8.022,2.662-2.239-3.572.251-8.936,4.231-8.589v0C150.075,61.447,151.69,64.189,151.306,67Z"/><path d="M144.366,96.778v0c-4.344-.859-7.753,4.778-5.417,9.058a4.889,4.889,0,0,0,3.459,2.564c4.49.746,7.795-5.05,5.353-9.237A4.712,4.712,0,0,0,144.366,96.778ZM142.54,107.61a4.133,4.133,0,0,1-2.9-2.156c-2.052-3.682.718-8.909,4.67-8.358v0a4.312,4.312,0,0,1,2.962,2.334C149.226,103.181,146.348,108.261,142.54,107.61Z"/><path d="M167.5,60.63v0c-2.651-.383-5.337,1.771-5.8,5.139-.671,5.45,4.875,8.7,8.481,5.065C173.573,67.409,171.944,61.019,167.5,60.63Zm3.755,6.247c-.57,4.623-5.67,6.408-8.022,2.662-2.235-3.565.243-8.936,4.231-8.589v0C170.02,61.321,171.636,64.061,171.252,66.877Z"/><path d="M164.291,97.685v0c-2.636-.522-5.424,1.5-6.06,4.832-.945,5.362,4.385,8.971,8.207,5.5a6.488,6.488,0,0,0,1.99-3.779,6.416,6.416,0,0,0-.742-4.166A4.71,4.71,0,0,0,164.291,97.685Zm3.426,6.432a5.777,5.777,0,0,1-1.8,3.317c-3.3,2.938-7.7-.195-6.961-4.793.41-2.805,2.716-5,5.285-4.639v0a4.317,4.317,0,0,1,2.963,2.334A5.842,5.842,0,0,1,167.717,104.117Z"/><path d="M144.264,99.885a2.87,2.87,0,0,0-2.469,5.179,2.682,2.682,0,0,0,1.428.247,3.742,3.742,0,0,0,1.32-.394.161.161,0,0,0,.088-.209.159.159,0,0,0-.207-.088,2.5,2.5,0,0,1-2.972-.826,2.215,2.215,0,0,1,.278-2.873,2.3,2.3,0,0,1,1.6-.688c1.332.03,1.7.951,1.959.717a.165.165,0,0,0,.008-.23A3.54,3.54,0,0,0,144.264,99.885Z"/><path d="M146.924,63.832a2.677,2.677,0,0,0-2.127.872,2.92,2.92,0,0,0-.163,3.917c1.459,1.744,4.01.606,3.835.238a.159.159,0,0,0-.212-.076,2.882,2.882,0,0,1-2.011.092,2.266,2.266,0,0,1-.18-4.177,2.578,2.578,0,0,1,2.61.374.162.162,0,0,0,.224-.233A3.239,3.239,0,0,0,146.924,63.832Z"/><path d="M106.582,65.136a.4.4,0,0,0-.764-.077,41.871,41.871,0,0,0-1.79,4.822.162.162,0,0,0,.3.127c.054-.1.526-.944,1.018-1.934a1.586,1.586,0,0,0,1.087.01c.57,2.058.587,2.082.761,2.047s.145-.122-.008-1.4C107.071,67.767,106.685,65.69,106.582,65.136Zm-1.226,2.253c.122-.266.588-1.413.714-1.7.024.107.361,1.329.45,1.7C106.486,67.383,105.456,67.389,105.356,67.389Z"/><path d="M100.672,101.909c-.478,1.187-.565,1.335-.392,1.42.2.1.342-.189,1.347-1.943a1.579,1.579,0,0,0,1.084.074c.19.881.434,1.852.458,1.952a.16.16,0,0,0,.317-.045s-.019-.516-.06-1.218C103.121,96.872,102.675,96.949,100.672,101.909Zm1.04-1.259c.131-.246.68-1.271.827-1.559.034.207-.027,1.345.031,1.664A6.831,6.831,0,0,0,101.712,100.65Z"/><path d="M124.206,64.485c-.366.015-.344,5.735-.345,5.738a.161.161,0,0,0,.123.19c3.982,1.1,4.766-1.886,2.828-2.837C128.729,66.813,128.01,63.871,124.206,64.485Zm0,5.637a10.765,10.765,0,0,0,.311-2.26C128.319,67.985,127.684,70.581,124.206,70.122Zm.34-3.066a11.271,11.271,0,0,0-.116-2.168C127.891,64.788,128.252,67.357,124.546,67.056Z"/><path d="M123.17,99.291a6,6,0,0,0-2.545-.311c-.219.209-.175.491-.335,1.494-.034.214-.062.445-.09.684-.023.192-.045.388-.065.586a.376.376,0,0,0-.016.074.4.4,0,0,0,0,.091c-.025.257-.05.512-.068.758a13.992,13.992,0,0,0-.021,1.881c.014.624,3.718,1.548,3.98-.943a1.444,1.444,0,0,0-.693-1.308c-.072-.05-.149-.1-.229-.144a2.365,2.365,0,0,0,.344-.144A1.476,1.476,0,0,0,123.17,99.291Zm-.079,3.839c.591.647-.009,1.783-2.687,1.247a11.481,11.481,0,0,0,.272-2.085c.069.008.154.017.249.025a6.022,6.022,0,0,1,1.657.461A1.661,1.661,0,0,1,123.091,103.13Zm-2.338-1.643a15.276,15.276,0,0,0,.063-2.158C124.146,99.367,124.749,101.974,120.753,101.487Z"/><path d="M165.337,63.748v0a.158.158,0,0,0-.162.147s-.274,1.668-.469,3.121c-.149,1.107-.251,2.086-.251,2.086a.384.384,0,0,0,.395.42c.1-.043,4.546-.118,4.79-2.961C169.833,63.61,165.437,63.79,165.337,63.748Zm-.084,4.967c.125-1.583.183-3.034.235-4.628C170.162,64.717,169.979,68.16,165.253,68.715Z"/><path d="M163.376,100.841a8.124,8.124,0,0,0-1.606-.241v0a.158.158,0,0,0-.171.136c-.948,4.561-1.15,5.212-.939,5.461.359.438,2.864-.11,3.719-.557a2.653,2.653,0,0,0,1.521-1.979C166.094,102.1,164.9,101.233,163.376,100.841Zm-1.981,4.712c.214-1.567.353-2.929.507-4.606C166.6,101.865,166.1,105.276,161.4,105.553Z"/><polygon points="67.77 135.909 67.784 136.567 67.785 136.64 67.77 135.909"/><path d="M53.331,121.876a.26.26,0,0,0,.166.23s2.216.886,4.732,1.884c3.3,1.305,7.105,2.805,7.105,2.805a.318.318,0,0,0,.109.02h0a.294.294,0,0,0,.166-.052.3.3,0,0,0,.128-.247s-.041-4.551-.09-8.493c-.036-3.008-.078-5.661-.078-5.661a.268.268,0,0,0-.206-.258s-3.1-.708-6.2-1.407-6.206-1.389-6.206-1.389h0l-.026,0h0a.119.119,0,0,0-.118.126s.118,3.112.248,6.224S53.331,121.876,53.331,121.876Zm-.122-12.261c.852.216,3.356.849,5.861,1.476,2.613.654,5.228,1.3,5.966,1.484,0,.465.007,1.671.016,3.19a32.669,32.669,0,0,1-11.7-1.9l0-.033c-.131-2-.248-3.727-.284-4.25Z"/><path d="M73.119,76.414a.209.209,0,0,0,.143-.266c-.04-.139-.073-.28-.1-.421a.234.234,0,0,0-.253-.192.2.2,0,0,0-.164.252c.03.154.067.306.109.457A.233.233,0,0,0,73.119,76.414Z"/><path d="M73.738,80.158a.074.074,0,0,0,.094-.04.758.758,0,0,0,.129-.1.415.415,0,0,0,.04-.043c.016-.021.032-.043.048-.068s.051-.079.076-.121a.692.692,0,0,0,.042-.081c.015-.035.013-.063.025-.1a.6.6,0,0,1,.022-.068.074.074,0,0,0,.025-.1.073.073,0,0,0-.1-.025.519.519,0,0,0-.161.042.234.234,0,0,0-.061.031.443.443,0,0,0-.1.1.7.7,0,0,0-.092.155.478.478,0,0,0-.038.112.466.466,0,0,0,0,.1.5.5,0,0,0,.012.105A.074.074,0,0,0,73.738,80.158Z"/><path d="M194.876,23.057a.4.4,0,0,0-.312-.109c-54.1,4.807-100.99,11.715-101.315,13.083-1.84,7.653-6.121,59.547-6.76,67.409l-2.451-.22C80.321,96.1,76.776,88.692,69.026,85.263l.779-1.914c3.151.329,5.6-1.41,5.486-5.12,1.477-1.349,1.924-.215-1.406-4.328,1.357-1.4,1.343-6.109-2.247-5.478a5.054,5.054,0,0,0-5.385-.164s-2.121-4.776-5.831-2.283-3.579,14.239-5.23,15.73c0,0,5.075-1.981,6.455-4.831A5.175,5.175,0,0,0,63.61,79.64a16.644,16.644,0,0,0-2.01,4c-7.307-.208-10.612,6.457-10.476,13.238,0,0,.267,13.592.533,26.656-4.048.589-47.495,7.676-46.644,9.573.075.172.242.067.419,0a27.966,27.966,0,0,0,.143,4.216c12.279,5.955,85.985,42.026,97.646,39.615S187.474,148.6,187.474,148.6a37.125,37.125,0,0,0,.624-8.492c1.548-2.386,6.895-116.639,6.9-116.741A.4.4,0,0,0,194.876,23.057ZM83.823,103.8c6.75.619,9.46.867,10.655.934a3.775,3.775,0,0,0,1.3-.078,5.172,5.172,0,0,1,.789-.157,2.427,2.427,0,0,1,2.473,1.476,9.832,9.832,0,0,0-2.256-.226c-3.667.646-10.755,4.992-14.932,4.174-2.125-.417-4.885-3.04-6.343-4.642l-.065-.318c1.672-1.8,4.118-3.832,6.49-4.5C83.7,103.821,83.575,103.773,83.823,103.8ZM53.887,131.018l-.049-6.737,9.119,3.537c-.051,1.616-.127,4.3-.155,5.933A65.782,65.782,0,0,0,53.887,131.018Zm8.911,3.026c-.012.841-.02,1.87-.025,2.7a35.642,35.642,0,0,0-3.459-1.123c-2.351.666-2.969.8-5.382,1.62l-.043-5.934A67.905,67.905,0,0,0,62.8,134.044Zm-8.853,13.413a.287.287,0,0,0,.06-.175l-.072-9.828c1.216-.257,2.641-.583,5.439-1.379,1.085.322,1.759.507,3.4.9-.015,2.725-.033,2.682.047,2.8a1.145,1.145,0,0,0,1.542.155.3.3,0,0,0,.154-.259s0-.889,0-2.178a5.508,5.508,0,0,0,1,.3l.457,15.3a.292.292,0,0,0,.1.212,1.437,1.437,0,0,0,.955.381h.017c.365,0,1.073-.269,1.067-.61,0-.1-.049-2.433-.046-2.285,0-.112-.458-22.381-.455-22.267.671-.158,2.671-.629,4.909-1.16.111,1.015.664,6.053,1.136,9.593-2.275-.69-3.335-1-5.9-1.661l.008.421-.008-.4.008.371,0-.129c2.285.827,3.877,1.339,5.977,1.985.158,1.145.3,2.079.413,2.583,0,0,.112.047.3.1,0,.035-.01.073-.016.113a59.7,59.7,0,0,0-6.622-2.047l-.011-.476.014.654,0-.244,0,.249a60.792,60.792,0,0,0,6.6,2.009c-.525,3.911.4,3.458,2.383,3.035a12.341,12.341,0,0,0,3.409-1.16.652.652,0,0,0,.4.16c.095,4.948.046,4.672.2,4.8.1.014,1.241.935,2.2,0,.127-.12.1.118.019-4.215a7.756,7.756,0,0,1,.74.367,4.863,4.863,0,0,0,.128,2.7c.486.61,4.9-.826,5.607-1.144a12.392,12.392,0,0,0,2.49.733c.006,5.727-.029,5.362.1,5.478a1.251,1.251,0,0,0,2.113-.286l.06-4.437,7.581,2.36c-1.841.65-7,2.472-12.149,4.314-5.87,2.1-11.73,4.223-12.7,4.573-9.656-3.755-29.47-11.427-39.995-15.4l14.944-4.259c.115,5.428.2,9.156.2,9.156a.277.277,0,0,0,.1.206,1.413,1.413,0,0,0,.8.362l.084,0A1.081,1.081,0,0,0,53.945,147.457Zm9.267-19.541.92.357c-.137,4.055-.188,6.553-.208,11.206a.607.607,0,0,1-.567-.005C63.378,134.909,63.33,132.037,63.212,127.916Zm1.293,6.3c-.023-2-.063-3.824-.113-5.84l.857.332.17,5.711A2.03,2.03,0,0,0,64.505,134.214Zm.93.729.079,2.638a5.536,5.536,0,0,0-1-.284c0-.6,0-1.683-.008-2.608A1.956,1.956,0,0,0,65.435,134.943Zm24.438-22.991L89.9,113.1c-4.214-.68-7.489-1.182-13.289-1.954-.084-.529-.155-.966-.251-1.492C81.8,110.649,84.471,111.1,89.873,111.952ZM76.313,109.4c-.157-.843-.377-2-.709-3.652a17.552,17.552,0,0,0,5.415,4.287C79.839,109.866,77.937,109.608,76.313,109.4Zm7.957,36.469c-.031.037-.061-.09-.084-.162a8.606,8.606,0,0,1-.1-2.275,3.811,3.811,0,0,0,2.8-.41c-.053.332-.167.514-.056.627a14.789,14.789,0,0,1,2.159-.117c.669.067.9.643.44,1-.29.227-.574.146-1.378.405a29.657,29.657,0,0,1-3.813.915C84.253,145.85,84.278,145.855,84.27,145.864Zm2.878-2.547.072-.642c.1-.254.211-.558.332-.9,1.728.528,2.5.763,4.446,1.224,0,.1,0,2.719,0,2.553a13.518,13.518,0,0,0-2.148-.685C90.076,144.748,91.293,142.6,87.148,143.317ZM92,142.75c-1.734-.663-2.691-.964-4.284-1.456,1.418-4.217,3.85-13.1,4.283-14.694C92,131.044,91.994,138.412,92,142.75ZM77,113.783c-.03-.2-.149-1.067-.353-2.39,14.485,2.7,13.77,2.417,13.843,2.128l1.514-.241c0,.1,0,2.8,0,2.624C90.651,112.692,80.968,113.621,77,113.783Zm6.7,26.719.24,2.639a2.516,2.516,0,0,0-.917-.313c-.043-2.142-.029-1.432-.053-2.595C83.16,140.3,83.408,140.394,83.707,140.5Zm-.735-.527c-.074-3.335-.173-7.152-.262-10.447l.965,10.62C83.381,140.074,83.141,140.017,82.972,139.975Zm-.8-16.366c.378,25.763.343,23.189.346,23.371a1.087,1.087,0,0,1-1.229-.057c-.42-22.852-.345-22.1-.776-22-.633.164-7.194,1.844-12.9,3.345,0-.1-.038-1.77-.035-1.664Zm-4.563,17.529c.1,0,2.937-.2,2.752.312-.147.416-1.435.869-1.85,1.007-.467.155-3.371.961-3.525.751a7.3,7.3,0,0,1-.264-2.907,4.472,4.472,0,0,0,2.819-.163C77.479,140.636,77.282,141.177,77.609,141.138Zm.16-.376.043-.76a.307.307,0,0,1,.031-.017s.106-.436.277-1.142c.553.151,1.765.472,2.435.64.008.46.017.912.025,1.349A5.535,5.535,0,0,0,77.769,140.762Zm.456-2.355c.571-2.357,1.632-6.768,2.154-9.089.049,3.136.09,5.538.171,9.908C79.844,138.971,78.69,138.566,78.225,138.407Zm15.754-13.952-.325,26.4a.706.706,0,0,1-1.095.048c-.059-9.887-.225-27.976-.314-37.662,8.291-1.321,11.919-1.919,20.394-3.388-.158,11.605-.281,21.849-.412,33.461a1.006,1.006,0,0,1-1.036.062c-.285-23.735-.033-23.225-.593-23.092C93.58,124.416,93.985,124.008,93.979,124.455Zm16.433-.694.032,2.529c-3.159-.849-7.146-1.77-11.6-2.613l5.206-1.236C105.688,122.876,108.122,123.407,110.412,123.761Zm-5.88-1.434,5.845-1.389.034,2.657C108.462,123.075,106.054,122.572,104.532,122.327Zm-9.963,2.366,3.753-.891c3.541.947,8.115,1.977,12.125,2.7l.214,17.055a.266.266,0,0,0,.151.237,1.467,1.467,0,0,0,1.887-.212c.075-.1.057.775.125-16.487,14.381,3.307,30.119,6.919,44.27,10.1,8.029,1.807,14.765,3.311,17.607,3.945-12.319,3.922-30.243,9.646-42.7,13.647-1.823-.552-20.7-6.285-37.684-11.37ZM90.5,113.272l-.036-1.487c8.045-1.256,13.344-2.092,24.129-3.933l.047,1.053C104.763,110.608,98.614,111.732,90.5,113.272Zm-.082-1.729c-.117-.189-6.887-1.158-6.988-1.172,4.675-.228,9.211-3.176,13.463-4.1,4.748.559,11.17,1.066,16,1.266C111.552,107.771,99.542,109.846,90.415,111.543Zm9.431-5.416a4.377,4.377,0,0,1-.469-.455c-.111-.236-.388-.533-.612-.9-2.233-3.806.809-8.982,4.694-8.321,4.262.7,4.947,7.518,1.009,9.966C102.643,106.286,101.494,106.2,99.846,106.127ZM63.874,79.782a3.5,3.5,0,0,0,2.921-.026c.781,1.294,2.318.508,2.165.245a.117.117,0,0,0-.161-.043c-1.464.646-2.1-1.423-1.457-1.921.716-.589,1.319.166,1.419.2a.119.119,0,0,0,.2-.138l-.005-.009a18.35,18.35,0,0,0,2.627-2.581c.405-.614,1.371-.8,2.108-1.423.7,1.044,1.358,2,2.092,3.058-.827.666-1.084.7-1.072.962.249,5.381-4.906,4.737-5.01,4.8-.324-.043-.239.381-.9,2.259a19.517,19.517,0,0,0-6.844-1.508A16.327,16.327,0,0,0,63.874,79.782Zm-2.236,4.337c10.253.437,15.547,7.334,20.158,16.074-2.576.317-4.994,2.32-6.431,4.378-2.259-10.97-1.217-1.269,1.188,8.378a25.609,25.609,0,0,1-9.218,2.7c-.376-16.886-.323-15.92-.5-15.954L51.364,96.777C51.449,89.93,54.685,83.815,61.638,84.119Zm-10.272,12.9,15.254,3c.281,18.044.566,34.758.916,52.922a.923.923,0,0,1-.493.163h-.006a.831.831,0,0,1-.484-.167c-.832-25.829-.554-24.583-.907-24.717-12.855-4.976-12.088-4.747-12.274-4.619-.245.168-.125,1.46.071,23.561a.584.584,0,0,1-.735-.052C52.522,139.68,51.408,98.528,51.366,97.022Zm.431,33.359c-3.268-1.142-5.481-1.851-8.22-2.7,2.975-.686,4.268-1,8.123-2.028C51.732,127.261,51.765,128.844,51.8,130.381Zm50.859,40.488C81.116,166.306,6.532,133.58,5.444,133.1c4.117-1.563,25.944-5.327,46.22-9.219l.03,1.506c-10.393,1.967-9.552,2.085-9.557,2.241a.293.293,0,0,0,.209.294c2.152.624,3.4,1.11,9.456,2.731.025,1.236.086,4.2.149,7.117-13.452,3.644-17.417,4.312-16.055,4.847,26.364,10.36,33.4,12.986,40.968,15.926.183.072-.575.353,13.083-4.693,6.4-2.362,12.785-4.757,12.785-4.757a.249.249,0,0,0-.013-.473l-8.441-2.451.032-2.414c.1.031,37.578,11.835,37.8,11.761,41.172-13.089,46.369-14.367,44.21-14.838,0,0-8.382-1.875-19.063-4.237-4.02-.887-8.366-1.844-12.713-2.8-15.239-3.328-30.484-6.619-31.723-6.885.008-2.006.008-2.06.009-2.41L187.7,140.245C164.5,150.29,102.656,170.869,102.656,170.869ZM187.5,139.5l-74.664-15.48c.025-6.859.043-13.152.046-14.212,3.1-.536,2.256.016,2.285-2.321a.3.3,0,0,0-.345-.279l-.55.094c-3.739-.435-5.515-.576-9.2-.844a6.443,6.443,0,0,0,1.968-8.232c-3.22-5.961-11.908-.744-9.109,5.931a4.408,4.408,0,0,0-2.769.014c-1.053-.07-3.254-.261-3.978-.322.68-6.81,5.694-56.351,7.6-62.867,20.573-2.349,74.321-8.527,87.892-9.889-.789,14.363-4.714,84.333-6.549,98.508-151.353-24.019.4.746.5.671,1.167-.867,7.141-99.539,6.751-99.914a.4.4,0,0,0-.316-.109C174.453,31.509,98.35,40.18,98.219,40.577c-1.914,5.89-6.774,57.025-7.357,63.248-1.374-.118-2.826-.247-4.049-.356.709-8.194,5.178-59.032,7.02-67.089,23.3-5.156,76.537-10.492,100.347-12.6C192.887,54.191,190.158,108.858,187.5,139.5Z"/><polygon points="67.818 138.229 67.809 137.819 67.787 136.738 67.818 138.229"/><polygon points="67.785 136.64 67.786 136.671 67.787 136.738 67.785 136.64"/><polygon points="67.766 135.686 67.766 135.719 67.77 135.909 67.766 135.686"/></svg>
